<svg width="112" height="24" viewBox="0 0 112 24" fill="none" xmlns="http://www.w3.org/2000/svg">
<rect x="36" width="48" height="24" rx="12" fill="white"/>
<circle cx="72" cy="12" r="7" fill="#5964E0"/>
<path fill-rule="evenodd" clip-rule="evenodd" d="M10 5.36466C9.67033 5.36466 9.38775 5.07009 9.38775 4.72642V2.83624C9.38775 2.49257 9.67033 2.198 10 2.198C10.3297 2.198 10.6122 2.49257 10.6122 2.83624V4.72642C10.6122 5.07009 10.3297 5.36466 10 5.36466ZM6.40172 7.95216C7.31472 7.10216 8.60365 6.55216 10 6.55216C11.3963 6.55216 12.6853 7.07716 13.5983 7.95216C14.5113 8.80216 15.102 10.0022 15.102 11.3022C15.102 12.6022 14.5113 13.8022 13.5983 14.6522C12.6853 15.5022 11.3963 16.0522 10 16.0522C8.60365 16.0522 7.31472 15.5272 6.40172 14.6522C5.48872 13.8022 4.89796 12.6022 4.89796 11.3022C4.89796 10.0022 5.46187 8.80216 6.40172 7.95216ZM3.0593 5.71009L4.54178 7.14778C4.83827 7.40918 5.26954 7.40918 5.51213 7.14778C5.78167 6.88638 5.78167 6.46814 5.51213 6.20674L4.02965 4.76905C3.76011 4.50765 3.32884 4.50765 3.0593 4.76905C2.78976 5.03045 2.78976 5.44869 3.0593 5.71009ZM0.658124 10.9063H2.60718C2.96156 10.9063 3.26531 11.1804 3.26531 11.5001C3.26531 11.8198 2.96156 12.0938 2.60718 12.0938H0.658124C0.303749 12.0938 0 11.8198 0 11.5001C0 11.1804 0.303749 10.9063 0.658124 10.9063ZM5.51213 15.8524C5.24259 15.591 4.81132 15.591 4.54178 15.8524L3.0593 17.2901C2.78976 17.5515 2.78976 17.9697 3.0593 18.2311C3.32884 18.4925 3.76011 18.4925 4.02965 18.2311L5.51213 16.7934C5.78167 16.532 5.78167 16.1138 5.51213 15.8524ZM10 17.6355C10.3297 17.6355 10.6122 17.9301 10.6122 18.2737V20.1639C10.6122 20.5076 10.3297 20.8022 10 20.8022C9.67033 20.8022 9.38775 20.5076 9.38775 20.1639V18.2737C9.38775 17.9301 9.67033 17.6355 10 17.6355ZM16.9407 17.2901L15.4582 15.8524C15.1617 15.591 14.7305 15.591 14.4879 15.8524C14.2183 16.1138 14.2183 16.532 14.4879 16.7934L15.9704 18.2311C16.2399 18.4925 16.6712 18.4925 16.9407 18.2311C17.2102 17.9697 17.2102 17.5515 16.9407 17.2901ZM16.7347 11.5001C16.7347 11.1804 17.0384 10.9063 17.3928 10.9063H19.3419C19.6963 10.9063 20 11.1804 20 11.5001C20 11.8198 19.6963 12.0938 19.3419 12.0938H17.3928C17.0384 12.0938 16.7347 11.8198 16.7347 11.5001ZM14.4879 7.14778C14.7574 7.40918 15.1887 7.40918 15.4582 7.14778L16.9407 5.71009C17.2102 5.44869 17.2102 5.03045 16.9407 4.76905C16.6712 4.50765 16.2399 4.50765 15.9704 4.76905L14.4879 6.20674C14.2183 6.46814 14.2183 6.88638 14.4879 7.14778Z" fill="white"/>
<path fill-rule="evenodd" clip-rule="evenodd" d="M106 6C104.358 6 102.842 6.69474 101.768 7.76842C100.663 8.84211 100 10.3579 100 12C100 13.6421 100.695 15.1579 101.768 16.2316C102.842 17.3368 104.358 18 106 18C107.642 18 109.158 17.3053 110.232 16.2316C111.305 15.1579 112 13.6421 112 12C112 11.8147 111.991 11.631 111.974 11.4494C111.867 12.369 111.438 13.2044 110.821 13.8211C110.105 14.5368 109.095 15 108 15C106.905 15 105.895 14.5579 105.179 13.8211C104.463 13.1053 104 12.0947 104 11C104 9.90526 104.442 8.89474 105.179 8.17895C105.895 7.46316 106.905 7 108 7C108.716 7 109.397 7.18933 109.982 7.52669C108.929 6.56718 107.519 6 106 6Z" fill="white"/>
</svg>
